<mxfile host="app.diagrams.net" agent="Mozilla/5.0 (Macintosh; Intel Mac OS X 10_15_7) AppleWebKit/537.36 (KHTML, like Gecko) Chrome/127.0.0.0 Safari/537.36" version="24.7.7">
  <diagram name="Page-1" id="U_gUqXv9_oGlhoQN5rfY">
    <mxGraphModel dx="1026" dy="585" grid="1" gridSize="10" guides="1" tooltips="1" connect="1" arrows="1" fold="1" page="1" pageScale="1" pageWidth="850" pageHeight="1100" math="0" shadow="0">
      <root>
        <mxCell id="0" />
        <mxCell id="1" parent="0" />
        <UserObject label="&lt;font style=&quot;font-size: 10px;&quot; data-font-src=&quot;https://fonts.googleapis.com/css?family=Figtree&quot; color=&quot;#ffffff&quot;&gt;Return to DEVELOPMENT&lt;/font&gt;" link="#section_4" id="BsW68z1m7G1KdXSox00R-6">
          <mxCell style="rounded=0;whiteSpace=wrap;html=1;strokeColor=none;fillColor=#9f79b0;fontFamily=Figtree;fontSource=https%3A%2F%2Ffonts.googleapis.com%2Fcss%3Ffamily%3DFigtree;fontSize=10;" parent="1" vertex="1">
            <mxGeometry x="270" y="610" width="160" height="50" as="geometry" />
          </mxCell>
        </UserObject>
        <UserObject label="&lt;font style=&quot;font-size: 10px;&quot; color=&quot;#ffffff&quot;&gt;Open for comment (including&amp;nbsp;&lt;/font&gt;&lt;div style=&quot;font-size: 10px;&quot;&gt;&lt;font style=&quot;font-size: 10px;&quot; color=&quot;#ffffff&quot;&gt;comments&amp;nbsp;&lt;/font&gt;&lt;span style=&quot;color: rgb(255, 255, 255); font-size: 10px;&quot;&gt;by Product Steering&amp;nbsp;&lt;/span&gt;&lt;div style=&quot;font-size: 10px;&quot;&gt;&lt;font style=&quot;font-size: 10px;&quot; color=&quot;#ffffff&quot;&gt;Committee and public) (#16)&lt;/font&gt;&lt;/div&gt;&lt;/div&gt;" link="#point16" id="BsW68z1m7G1KdXSox00R-8">
          <mxCell style="rounded=0;whiteSpace=wrap;html=1;strokeColor=none;fillColor=#4FAEDC;fontFamily=Figtree;fontSource=https%3A%2F%2Ffonts.googleapis.com%2Fcss%3Ffamily%3DFigtree;fontSize=10;" parent="1" vertex="1">
            <mxGeometry x="488.75" y="80" width="160" height="50" as="geometry" />
          </mxCell>
        </UserObject>
        <UserObject label="&lt;span style=&quot;color: rgb(255, 255, 255); font-size: 10px; background-color: initial;&quot;&gt;Product Review&amp;nbsp;&lt;/span&gt;&lt;div style=&quot;font-size: 10px;&quot;&gt;&lt;span style=&quot;color: rgb(255, 255, 255); font-size: 10px; background-color: initial;&quot;&gt;Committee,&amp;nbsp;&lt;/span&gt;&lt;span style=&quot;color: rgb(255, 255, 255); font-size: 10px;&quot;&gt;Regulatory&amp;nbsp;&lt;/span&gt;&lt;/div&gt;&lt;div style=&quot;font-size: 10px;&quot;&gt;&lt;span style=&quot;color: rgb(255, 255, 255); font-size: 10px;&quot;&gt;&amp;amp; Ethics, and&amp;nbsp;&lt;/span&gt;&lt;span style=&quot;color: rgb(255, 255, 255); font-size: 10px;&quot;&gt;Security&lt;/span&gt;&lt;/div&gt;&lt;div style=&quot;font-size: 10px;&quot;&gt;&lt;span style=&quot;color: rgb(255, 255, 255); font-size: 10px;&quot;&gt;approve? (#18)&lt;/span&gt;&lt;/div&gt;" link="#point18" id="BsW68z1m7G1KdXSox00R-13">
          <mxCell style="rhombus;whiteSpace=wrap;html=1;strokeColor=none;fillColor=#1b75bb;fontFamily=Figtree;fontSource=https%3A%2F%2Ffonts.googleapis.com%2Fcss%3Ffamily%3DFigtree;fontSize=10;" parent="1" vertex="1">
            <mxGeometry x="483.13" y="360" width="171.25" height="80" as="geometry" />
          </mxCell>
        </UserObject>
        <UserObject label="&lt;span style=&quot;color: rgb(255, 255, 255); font-size: 10px; background-color: initial;&quot;&gt;Move ahead? (#19)&lt;/span&gt;" link="#point19" id="BsW68z1m7G1KdXSox00R-18">
          <mxCell style="rhombus;whiteSpace=wrap;html=1;strokeColor=none;fillColor=#1b75bb;fontFamily=Figtree;fontSource=https%3A%2F%2Ffonts.googleapis.com%2Fcss%3Ffamily%3DFigtree;fontSize=10;" parent="1" vertex="1">
            <mxGeometry x="170" y="490" width="160" height="80" as="geometry" />
          </mxCell>
        </UserObject>
        <UserObject label="&lt;font color=&quot;#ffffff&quot; style=&quot;font-size: 10px;&quot;&gt;Subset/delegates of Product Steering&amp;nbsp;&lt;/font&gt;&lt;span style=&quot;color: rgb(255, 255, 255);&quot;&gt;Committee review content and vote in&lt;/span&gt;&lt;div style=&quot;font-size: 10px;&quot;&gt;&lt;font color=&quot;#ffffff&quot; style=&quot;font-size: 10px;&quot;&gt;offline ballot (#20)&lt;/font&gt;&lt;/div&gt;" link="#point20" id="BsW68z1m7G1KdXSox00R-21">
          <mxCell style="rounded=0;whiteSpace=wrap;html=1;strokeColor=none;fillColor=#4FAEDC;fontFamily=Figtree;fontSource=https%3A%2F%2Ffonts.googleapis.com%2Fcss%3Ffamily%3DFigtree;fontSize=10;" parent="1" vertex="1">
            <mxGeometry x="488.75" y="500" width="160" height="61" as="geometry" />
          </mxCell>
        </UserObject>
        <mxCell id="BsW68z1m7G1KdXSox00R-24" value="&lt;font style=&quot;font-size: 10px;&quot;&gt;Approval leads to a new product&amp;nbsp;&lt;/font&gt;&lt;div style=&quot;font-size: 10px;&quot;&gt;&lt;font style=&quot;font-size: 10px;&quot;&gt;or major version release&lt;/font&gt;&lt;div style=&quot;font-size: 10px;&quot;&gt;&lt;font style=&quot;font-size: 10px;&quot;&gt;• Product group works with GA4GH&amp;nbsp;&lt;/font&gt;&lt;/div&gt;&lt;div style=&quot;font-size: 10px;&quot;&gt;&lt;font style=&quot;font-size: 10px;&quot;&gt;Communications team to promote product&lt;/font&gt;&lt;/div&gt;&lt;div style=&quot;font-size: 10px;&quot;&gt;&lt;font style=&quot;font-size: 10px;&quot;&gt;• Product group follows approved road&lt;/font&gt;&lt;/div&gt;&lt;div style=&quot;font-size: 10px;&quot;&gt;&lt;font style=&quot;font-size: 10px;&quot;&gt;map&amp;nbsp;&lt;/font&gt;to support adoption&lt;/div&gt;&lt;/div&gt;" style="rounded=1;whiteSpace=wrap;html=1;absoluteArcSize=0;arcSize=60;strokeColor=none;fillColor=#8cc63e;fontColor=#FFFFFF;fontFamily=Figtree;fontSource=https%3A%2F%2Ffonts.googleapis.com%2Fcss%3Ffamily%3DFigtree;fontSize=10;" parent="1" vertex="1">
          <mxGeometry x="464" y="960" width="209.5" height="100" as="geometry" />
        </mxCell>
        <mxCell id="BsW68z1m7G1KdXSox00R-26" value="&lt;span style=&quot;font-size: 10px;&quot;&gt;&lt;font style=&quot;font-size: 10px;&quot;&gt;End&lt;/font&gt;&lt;/span&gt;" style="rounded=1;whiteSpace=wrap;html=1;absoluteArcSize=0;arcSize=60;strokeColor=none;fillColor=#767676;fontColor=#FFFFFF;fontFamily=Figtree;fontSource=https%3A%2F%2Ffonts.googleapis.com%2Fcss%3Ffamily%3DFigtree;fontSize=10;" parent="1" vertex="1">
          <mxGeometry x="70" y="610" width="160" height="50" as="geometry" />
        </mxCell>
        <mxCell id="BsW68z1m7G1KdXSox00R-35" value="&lt;p style=&quot;line-height: 100%; font-size: 10px;&quot;&gt;Start here&lt;/p&gt;" style="rounded=1;whiteSpace=wrap;absoluteArcSize=0;arcSize=60;fontFamily=Figtree;fontSource=https%3A%2F%2Ffonts.googleapis.com%2Fcss%3Ffamily%3DFigtree;fontSize=10;html=1;fillColor=#f5f5f5;fontColor=#333333;strokeColor=#666666;" parent="1" vertex="1">
          <mxGeometry x="473.75" y="20" width="190" height="40" as="geometry" />
        </mxCell>
        <UserObject label="&lt;font style=&quot;font-size: 10px;&quot; color=&quot;#ffffff&quot;&gt;&lt;span style=&quot;caret-color: rgb(255, 255, 255); font-size: 10px;&quot;&gt;Product group reviews&amp;nbsp;&lt;/span&gt;&lt;/font&gt;&lt;div style=&quot;font-size: 10px;&quot;&gt;&lt;font style=&quot;font-size: 10px;&quot; color=&quot;#ffffff&quot;&gt;&lt;span style=&quot;caret-color: rgb(255, 255, 255); font-size: 10px;&quot;&gt;and revises&lt;/span&gt;&lt;/font&gt;&lt;/div&gt;" id="BsW68z1m7G1KdXSox00R-53">
          <mxCell style="rounded=0;whiteSpace=wrap;html=1;strokeColor=none;fillColor=#4FAEDC;fontFamily=Figtree;fontSource=https%3A%2F%2Ffonts.googleapis.com%2Fcss%3Ffamily%3DFigtree;fontSize=10;" parent="1" vertex="1">
            <mxGeometry x="488.75" y="150" width="160" height="50" as="geometry" />
          </mxCell>
        </UserObject>
        <UserObject label="&lt;font style=&quot;font-size: 10px;&quot; color=&quot;#ffffff&quot;&gt;&lt;span style=&quot;caret-color: rgb(255, 255, 255); font-size: 10px;&quot;&gt;Product Review Committee, Regulatory&amp;nbsp;&lt;/span&gt;&lt;/font&gt;&lt;span style=&quot;caret-color: rgb(255, 255, 255); color: rgb(255, 255, 255);&quot;&gt;&amp;amp; Ethics, and Security review (#17)&lt;/span&gt;" link="#point17" id="BsW68z1m7G1KdXSox00R-54">
          <mxCell style="rounded=0;whiteSpace=wrap;html=1;strokeColor=none;fillColor=#4FAEDC;fontFamily=Figtree;fontSource=https%3A%2F%2Ffonts.googleapis.com%2Fcss%3Ffamily%3DFigtree;fontSize=10;" parent="1" vertex="1">
            <mxGeometry x="488.75" y="220" width="160" height="50" as="geometry" />
          </mxCell>
        </UserObject>
        <UserObject label="&lt;font style=&quot;font-size: 10px;&quot; color=&quot;#ffffff&quot;&gt;&lt;span style=&quot;caret-color: rgb(255, 255, 255); font-size: 10px;&quot;&gt;Product group reviews&amp;nbsp;&lt;/span&gt;&lt;/font&gt;&lt;div style=&quot;font-size: 10px;&quot;&gt;&lt;font style=&quot;font-size: 10px;&quot; color=&quot;#ffffff&quot;&gt;&lt;span style=&quot;caret-color: rgb(255, 255, 255); font-size: 10px;&quot;&gt;and revises&lt;/span&gt;&lt;/font&gt;&lt;/div&gt;" id="BsW68z1m7G1KdXSox00R-55">
          <mxCell style="rounded=0;whiteSpace=wrap;html=1;strokeColor=none;fillColor=#4FAEDC;fontFamily=Figtree;fontSource=https%3A%2F%2Ffonts.googleapis.com%2Fcss%3Ffamily%3DFigtree;fontSize=10;" parent="1" vertex="1">
            <mxGeometry x="488.75" y="290" width="160" height="50" as="geometry" />
          </mxCell>
        </UserObject>
        <UserObject label="&lt;font style=&quot;font-size: 10px;&quot; color=&quot;#ffffff&quot;&gt;&lt;span style=&quot;caret-color: rgb(255, 255, 255); font-size: 10px;&quot;&gt;Subset/delegates of&amp;nbsp;&lt;/span&gt;&lt;/font&gt;&lt;div style=&quot;font-size: 10px;&quot;&gt;&lt;font style=&quot;font-size: 10px;&quot; color=&quot;#ffffff&quot;&gt;&lt;span style=&quot;caret-color: rgb(255, 255, 255); font-size: 10px;&quot;&gt;Product&amp;nbsp;&lt;/span&gt;&lt;/font&gt;&lt;span style=&quot;caret-color: rgb(255, 255, 255); color: rgb(255, 255, 255); font-size: 10px;&quot;&gt;Steering Committee&amp;nbsp;&lt;/span&gt;&lt;/div&gt;&lt;div style=&quot;font-size: 10px;&quot;&gt;&lt;span style=&quot;caret-color: rgb(255, 255, 255); color: rgb(255, 255, 255); font-size: 10px;&quot;&gt;approve&amp;nbsp;&lt;/span&gt;&lt;span style=&quot;caret-color: rgb(255, 255, 255); color: rgb(255, 255, 255); font-size: 10px;&quot;&gt;content? (#21)&lt;/span&gt;&lt;/div&gt;" link="#point21" id="BsW68z1m7G1KdXSox00R-56">
          <mxCell style="rhombus;whiteSpace=wrap;html=1;strokeColor=none;fillColor=#1b75bb;fontFamily=Figtree;fontSource=https%3A%2F%2Ffonts.googleapis.com%2Fcss%3Ffamily%3DFigtree;fontSize=10;" parent="1" vertex="1">
            <mxGeometry x="483.13" y="590" width="171.25" height="80" as="geometry" />
          </mxCell>
        </UserObject>
        <UserObject label="&lt;font style=&quot;font-size: 10px;&quot; color=&quot;#ffffff&quot;&gt;&lt;span style=&quot;caret-color: rgb(255, 255, 255); font-size: 10px;&quot;&gt;Presentation to full Product Steering&amp;nbsp;&lt;/span&gt;&lt;/font&gt;&lt;span style=&quot;caret-color: rgb(255, 255, 255); color: rgb(255, 255, 255);&quot;&gt;Committee for approval (#22)&lt;/span&gt;&lt;div style=&quot;font-size: 10px;&quot;&gt;&lt;font style=&quot;font-size: 10px;&quot; color=&quot;#ffffff&quot;&gt;&lt;span style=&quot;caret-color: rgb(255, 255, 255); font-size: 10px;&quot;&gt;• Ensure that the development process&amp;nbsp;&lt;/span&gt;&lt;/font&gt;&lt;span style=&quot;caret-color: rgb(255, 255, 255); color: rgb(255, 255, 255);&quot;&gt;was followed using the supplied&amp;nbsp;&lt;/span&gt;&lt;span style=&quot;caret-color: rgb(255, 255, 255); color: rgb(255, 255, 255);&quot;&gt;documentation&lt;/span&gt;&lt;/div&gt;" link="#point22" id="BsW68z1m7G1KdXSox00R-57">
          <mxCell style="rounded=0;whiteSpace=wrap;html=1;strokeColor=none;fillColor=#4FAEDC;fontFamily=Figtree;fontSource=https%3A%2F%2Ffonts.googleapis.com%2Fcss%3Ffamily%3DFigtree;fontSize=10;" parent="1" vertex="1">
            <mxGeometry x="488.75" y="721" width="160" height="89" as="geometry" />
          </mxCell>
        </UserObject>
        <UserObject label="&lt;font style=&quot;font-size: 10px;&quot; color=&quot;#ffffff&quot;&gt;&lt;span style=&quot;caret-color: rgb(255, 255, 255); font-size: 10px;&quot;&gt;Full Product Steering&amp;nbsp;&lt;/span&gt;&lt;/font&gt;&lt;div style=&quot;font-size: 10px;&quot;&gt;&lt;font style=&quot;font-size: 10px;&quot; color=&quot;#ffffff&quot;&gt;&lt;span style=&quot;caret-color: rgb(255, 255, 255); font-size: 10px;&quot;&gt;Committee&amp;nbsp;&lt;/span&gt;&lt;/font&gt;&lt;span style=&quot;caret-color: rgb(255, 255, 255); color: rgb(255, 255, 255); font-size: 10px;&quot;&gt;approves&amp;nbsp;&lt;/span&gt;&lt;/div&gt;&lt;div style=&quot;font-size: 10px;&quot;&gt;&lt;span style=&quot;caret-color: rgb(255, 255, 255); color: rgb(255, 255, 255); font-size: 10px;&quot;&gt;process? (#22)&lt;/span&gt;&lt;/div&gt;" link="#point22" id="BsW68z1m7G1KdXSox00R-58">
          <mxCell style="rhombus;whiteSpace=wrap;html=1;strokeColor=none;fillColor=#1b75bb;fontFamily=Figtree;fontSource=https%3A%2F%2Ffonts.googleapis.com%2Fcss%3Ffamily%3DFigtree;fontSize=10;" parent="1" vertex="1">
            <mxGeometry x="488.76" y="830" width="160" height="80" as="geometry" />
          </mxCell>
        </UserObject>
        <mxCell id="BsW68z1m7G1KdXSox00R-59" value="" style="endArrow=classic;html=1;rounded=0;exitX=0.5;exitY=1;exitDx=0;exitDy=0;entryX=0.5;entryY=0;entryDx=0;entryDy=0;fontSize=10;" parent="1" source="BsW68z1m7G1KdXSox00R-35" target="BsW68z1m7G1KdXSox00R-8" edge="1">
          <mxGeometry width="50" height="50" relative="1" as="geometry">
            <mxPoint x="530" y="240" as="sourcePoint" />
            <mxPoint x="565" as="targetPoint" />
          </mxGeometry>
        </mxCell>
        <mxCell id="BsW68z1m7G1KdXSox00R-60" value="" style="endArrow=classic;html=1;rounded=0;exitX=0.5;exitY=1;exitDx=0;exitDy=0;entryX=0.5;entryY=0;entryDx=0;entryDy=0;fontSize=10;" parent="1" source="BsW68z1m7G1KdXSox00R-8" target="BsW68z1m7G1KdXSox00R-53" edge="1">
          <mxGeometry width="50" height="50" relative="1" as="geometry">
            <mxPoint x="530" y="50" as="sourcePoint" />
            <mxPoint x="580" as="targetPoint" />
          </mxGeometry>
        </mxCell>
        <mxCell id="BsW68z1m7G1KdXSox00R-61" value="" style="endArrow=classic;html=1;rounded=0;exitX=0.5;exitY=1;exitDx=0;exitDy=0;fontSize=10;" parent="1" source="BsW68z1m7G1KdXSox00R-53" target="BsW68z1m7G1KdXSox00R-54" edge="1">
          <mxGeometry width="50" height="50" relative="1" as="geometry">
            <mxPoint x="530" y="160" as="sourcePoint" />
            <mxPoint x="580" y="110" as="targetPoint" />
          </mxGeometry>
        </mxCell>
        <mxCell id="BsW68z1m7G1KdXSox00R-62" value="" style="endArrow=classic;html=1;rounded=0;exitX=0.5;exitY=1;exitDx=0;exitDy=0;entryX=0.5;entryY=0;entryDx=0;entryDy=0;fontSize=10;" parent="1" source="BsW68z1m7G1KdXSox00R-54" target="BsW68z1m7G1KdXSox00R-55" edge="1">
          <mxGeometry width="50" height="50" relative="1" as="geometry">
            <mxPoint x="530" y="310" as="sourcePoint" />
            <mxPoint x="580" y="260" as="targetPoint" />
          </mxGeometry>
        </mxCell>
        <mxCell id="BsW68z1m7G1KdXSox00R-63" value="" style="endArrow=classic;html=1;rounded=0;exitX=0.5;exitY=1;exitDx=0;exitDy=0;entryX=0.5;entryY=0;entryDx=0;entryDy=0;fontSize=10;" parent="1" source="BsW68z1m7G1KdXSox00R-55" target="BsW68z1m7G1KdXSox00R-13" edge="1">
          <mxGeometry width="50" height="50" relative="1" as="geometry">
            <mxPoint x="530" y="350" as="sourcePoint" />
            <mxPoint x="580" y="300" as="targetPoint" />
          </mxGeometry>
        </mxCell>
        <mxCell id="BsW68z1m7G1KdXSox00R-64" value="" style="endArrow=classic;html=1;rounded=0;exitX=0.5;exitY=1;exitDx=0;exitDy=0;entryX=0.5;entryY=0;entryDx=0;entryDy=0;fontSize=10;" parent="1" source="BsW68z1m7G1KdXSox00R-13" target="BsW68z1m7G1KdXSox00R-21" edge="1">
          <mxGeometry width="50" height="50" relative="1" as="geometry">
            <mxPoint x="490" y="430" as="sourcePoint" />
            <mxPoint x="540" y="380" as="targetPoint" />
          </mxGeometry>
        </mxCell>
        <mxCell id="BsW68z1m7G1KdXSox00R-65" value="" style="endArrow=classic;html=1;rounded=1;exitX=0.5;exitY=1;exitDx=0;exitDy=0;entryX=0.5;entryY=0;entryDx=0;entryDy=0;curved=0;fontSize=10;" parent="1" source="BsW68z1m7G1KdXSox00R-13" target="BsW68z1m7G1KdXSox00R-18" edge="1">
          <mxGeometry width="50" height="50" relative="1" as="geometry">
            <mxPoint x="490" y="430" as="sourcePoint" />
            <mxPoint x="540" y="380" as="targetPoint" />
            <Array as="points">
              <mxPoint x="569" y="460" />
              <mxPoint x="250" y="460" />
            </Array>
          </mxGeometry>
        </mxCell>
        <mxCell id="BsW68z1m7G1KdXSox00R-66" value="" style="endArrow=classic;html=1;rounded=1;entryX=1;entryY=0.5;entryDx=0;entryDy=0;curved=0;fontSize=10;" parent="1" target="BsW68z1m7G1KdXSox00R-8" edge="1">
          <mxGeometry width="50" height="50" relative="1" as="geometry">
            <mxPoint x="569" y="440" as="sourcePoint" />
            <mxPoint x="760" y="320" as="targetPoint" />
            <Array as="points">
              <mxPoint x="569" y="460" />
              <mxPoint x="700" y="460" />
              <mxPoint x="700" y="105" />
            </Array>
          </mxGeometry>
        </mxCell>
        <mxCell id="BsW68z1m7G1KdXSox00R-67" value="" style="endArrow=classic;html=1;rounded=0;exitX=0.5;exitY=1;exitDx=0;exitDy=0;fontSize=10;" parent="1" source="BsW68z1m7G1KdXSox00R-21" target="BsW68z1m7G1KdXSox00R-56" edge="1">
          <mxGeometry width="50" height="50" relative="1" as="geometry">
            <mxPoint x="400" y="450" as="sourcePoint" />
            <mxPoint x="450" y="400" as="targetPoint" />
          </mxGeometry>
        </mxCell>
        <mxCell id="BsW68z1m7G1KdXSox00R-68" value="" style="endArrow=classic;html=1;rounded=0;exitX=0.5;exitY=1;exitDx=0;exitDy=0;entryX=0.5;entryY=0;entryDx=0;entryDy=0;fontSize=10;" parent="1" source="BsW68z1m7G1KdXSox00R-56" target="BsW68z1m7G1KdXSox00R-57" edge="1">
          <mxGeometry width="50" height="50" relative="1" as="geometry">
            <mxPoint x="400" y="700" as="sourcePoint" />
            <mxPoint x="450" y="650" as="targetPoint" />
          </mxGeometry>
        </mxCell>
        <mxCell id="BsW68z1m7G1KdXSox00R-69" value="" style="endArrow=classic;html=1;rounded=0;exitX=0.5;exitY=1;exitDx=0;exitDy=0;fontSize=10;" parent="1" source="BsW68z1m7G1KdXSox00R-57" target="BsW68z1m7G1KdXSox00R-58" edge="1">
          <mxGeometry width="50" height="50" relative="1" as="geometry">
            <mxPoint x="430" y="820" as="sourcePoint" />
            <mxPoint x="480" y="770" as="targetPoint" />
          </mxGeometry>
        </mxCell>
        <mxCell id="BsW68z1m7G1KdXSox00R-70" value="" style="endArrow=classic;html=1;rounded=1;exitX=0.5;exitY=1;exitDx=0;exitDy=0;entryX=0.5;entryY=0;entryDx=0;entryDy=0;curved=0;fontSize=10;" parent="1" source="BsW68z1m7G1KdXSox00R-18" target="BsW68z1m7G1KdXSox00R-6" edge="1">
          <mxGeometry width="50" height="50" relative="1" as="geometry">
            <mxPoint x="430" y="560" as="sourcePoint" />
            <mxPoint x="480" y="510" as="targetPoint" />
            <Array as="points">
              <mxPoint x="250" y="590" />
              <mxPoint x="350" y="590" />
            </Array>
          </mxGeometry>
        </mxCell>
        <mxCell id="BsW68z1m7G1KdXSox00R-71" value="" style="endArrow=classic;html=1;rounded=1;exitX=0.5;exitY=1;exitDx=0;exitDy=0;entryX=0.474;entryY=0.016;entryDx=0;entryDy=0;entryPerimeter=0;curved=0;fontSize=10;" parent="1" source="BsW68z1m7G1KdXSox00R-18" target="BsW68z1m7G1KdXSox00R-26" edge="1">
          <mxGeometry width="50" height="50" relative="1" as="geometry">
            <mxPoint x="250" y="570" as="sourcePoint" />
            <mxPoint x="170" y="600" as="targetPoint" />
            <Array as="points">
              <mxPoint x="250" y="590" />
              <mxPoint x="146" y="590" />
            </Array>
          </mxGeometry>
        </mxCell>
        <mxCell id="BsW68z1m7G1KdXSox00R-72" value="" style="endArrow=classic;html=1;rounded=0;exitX=0.5;exitY=1;exitDx=0;exitDy=0;entryX=0.5;entryY=0;entryDx=0;entryDy=0;fontSize=10;" parent="1" source="BsW68z1m7G1KdXSox00R-58" target="BsW68z1m7G1KdXSox00R-24" edge="1">
          <mxGeometry width="50" height="50" relative="1" as="geometry">
            <mxPoint x="420" y="760" as="sourcePoint" />
            <mxPoint x="470" y="710" as="targetPoint" />
          </mxGeometry>
        </mxCell>
        <mxCell id="BsW68z1m7G1KdXSox00R-73" value="" style="endArrow=classic;html=1;rounded=1;exitX=0.5;exitY=1;exitDx=0;exitDy=0;entryX=1;entryY=0.5;entryDx=0;entryDy=0;curved=0;fontSize=10;" parent="1" source="BsW68z1m7G1KdXSox00R-58" target="BsW68z1m7G1KdXSox00R-18" edge="1">
          <mxGeometry width="50" height="50" relative="1" as="geometry">
            <mxPoint x="440" y="770" as="sourcePoint" />
            <mxPoint x="410" y="540" as="targetPoint" />
            <Array as="points">
              <mxPoint x="569" y="920" />
              <mxPoint x="460" y="920" />
              <mxPoint x="460" y="530" />
            </Array>
          </mxGeometry>
        </mxCell>
        <mxCell id="BsW68z1m7G1KdXSox00R-74" value="No" style="edgeLabel;html=1;align=center;verticalAlign=middle;resizable=0;points=[];labelBackgroundColor=#FFFFFF;fontFamily=Figtree;fontSize=10;fontSource=https%3A%2F%2Ffonts.googleapis.com%2Fcss%3Ffamily%3DFigtree;" parent="1" vertex="1" connectable="0">
          <mxGeometry x="391" y="194" as="geometry">
            <mxPoint x="126" y="266" as="offset" />
          </mxGeometry>
        </mxCell>
        <mxCell id="BsW68z1m7G1KdXSox00R-75" value="No,&lt;div style=&quot;font-size: 10px;&quot;&gt;return to&lt;/div&gt;&lt;div style=&quot;font-size: 10px;&quot;&gt;Open for Comment&lt;/div&gt;" style="edgeLabel;html=1;align=center;verticalAlign=middle;resizable=0;points=[];labelBackgroundColor=#FFFFFF;fontFamily=Figtree;fontSize=10;fontSource=https%3A%2F%2Ffonts.googleapis.com%2Fcss%3Ffamily%3DFigtree;" parent="1" vertex="1" connectable="0">
          <mxGeometry x="511" y="192" as="geometry">
            <mxPoint x="126" y="266" as="offset" />
          </mxGeometry>
        </mxCell>
        <mxCell id="BsW68z1m7G1KdXSox00R-76" value="Yes" style="edgeLabel;html=1;align=center;verticalAlign=middle;resizable=0;points=[];labelBackgroundColor=#FFFFFF;fontFamily=Figtree;fontSize=10;fontSource=https%3A%2F%2Ffonts.googleapis.com%2Fcss%3Ffamily%3DFigtree;" parent="1" vertex="1" connectable="0">
          <mxGeometry x="443" y="211" as="geometry">
            <mxPoint x="126" y="266" as="offset" />
          </mxGeometry>
        </mxCell>
        <mxCell id="BsW68z1m7G1KdXSox00R-77" value="Yes" style="edgeLabel;html=1;align=center;verticalAlign=middle;resizable=0;points=[];labelBackgroundColor=#FFFFFF;fontFamily=Figtree;fontSize=10;fontSource=https%3A%2F%2Ffonts.googleapis.com%2Fcss%3Ffamily%3DFigtree;" parent="1" vertex="1" connectable="0">
          <mxGeometry x="175" y="324" as="geometry">
            <mxPoint x="126" y="266" as="offset" />
          </mxGeometry>
        </mxCell>
        <mxCell id="BsW68z1m7G1KdXSox00R-78" value="No" style="edgeLabel;html=1;align=center;verticalAlign=middle;resizable=0;points=[];labelBackgroundColor=#FFFFFF;fontFamily=Figtree;fontSize=10;fontSource=https%3A%2F%2Ffonts.googleapis.com%2Fcss%3Ffamily%3DFigtree;" parent="1" vertex="1" connectable="0">
          <mxGeometry x="74" y="324" as="geometry">
            <mxPoint x="126" y="266" as="offset" />
          </mxGeometry>
        </mxCell>
        <mxCell id="BsW68z1m7G1KdXSox00R-79" value="Yes" style="edgeLabel;html=1;align=center;verticalAlign=middle;resizable=0;points=[];labelBackgroundColor=#FFFFFF;fontFamily=Figtree;fontSize=10;fontSource=https%3A%2F%2Ffonts.googleapis.com%2Fcss%3Ffamily%3DFigtree;" parent="1" vertex="1" connectable="0">
          <mxGeometry x="441" y="671" as="geometry">
            <mxPoint x="126" y="266" as="offset" />
          </mxGeometry>
        </mxCell>
        <mxCell id="BsW68z1m7G1KdXSox00R-80" value="No" style="edgeLabel;html=1;align=center;verticalAlign=middle;resizable=0;points=[];labelBackgroundColor=#FFFFFF;fontFamily=Figtree;fontSize=10;fontSource=https%3A%2F%2Ffonts.googleapis.com%2Fcss%3Ffamily%3DFigtree;" parent="1" vertex="1" connectable="0">
          <mxGeometry x="404" y="654" as="geometry">
            <mxPoint x="126" y="266" as="offset" />
          </mxGeometry>
        </mxCell>
        <mxCell id="BsW68z1m7G1KdXSox00R-81" value="" style="endArrow=classic;html=1;rounded=1;exitX=0.5;exitY=1;exitDx=0;exitDy=0;curved=0;fontSize=10;" parent="1" source="BsW68z1m7G1KdXSox00R-56" edge="1">
          <mxGeometry width="50" height="50" relative="1" as="geometry">
            <mxPoint x="570" y="681" as="sourcePoint" />
            <mxPoint x="460" y="681" as="targetPoint" />
            <Array as="points">
              <mxPoint x="569" y="681" />
            </Array>
          </mxGeometry>
        </mxCell>
        <mxCell id="BsW68z1m7G1KdXSox00R-82" value="Yes" style="edgeLabel;html=1;align=center;verticalAlign=middle;resizable=0;points=[];labelBackgroundColor=#FFFFFF;fontFamily=Figtree;fontSize=10;fontSource=https%3A%2F%2Ffonts.googleapis.com%2Fcss%3Ffamily%3DFigtree;" parent="1" vertex="1" connectable="0">
          <mxGeometry x="442" y="432" as="geometry">
            <mxPoint x="126" y="266" as="offset" />
          </mxGeometry>
        </mxCell>
        <mxCell id="BsW68z1m7G1KdXSox00R-83" value="No" style="edgeLabel;html=1;align=center;verticalAlign=middle;resizable=0;points=[];labelBackgroundColor=#FFFFFF;fontFamily=Figtree;fontSize=10;fontSource=https%3A%2F%2Ffonts.googleapis.com%2Fcss%3Ffamily%3DFigtree;" parent="1" vertex="1" connectable="0">
          <mxGeometry x="415" y="415" as="geometry">
            <mxPoint x="126" y="266" as="offset" />
          </mxGeometry>
        </mxCell>
      </root>
    </mxGraphModel>
  </diagram>
</mxfile>
